<mxfile host="app.diagrams.net" modified="2023-06-16T09:00:24.287Z" agent="Mozilla/5.0 (Windows NT 10.0; Win64; x64) AppleWebKit/537.36 (KHTML, like Gecko) Chrome/114.0.0.0 Safari/537.36" etag="xD7IEOpuAuBxLs5pm3x5" version="21.4.0" type="github">
  <diagram name="Page-1" id="74b105a0-9070-1c63-61bc-23e55f88626e">
    <mxGraphModel dx="4339" dy="1488" grid="1" gridSize="10" guides="1" tooltips="1" connect="1" arrows="1" fold="1" page="0" pageScale="1.5" pageWidth="827" pageHeight="583" background="none" math="0" shadow="0">
      <root>
        <mxCell id="0" style=";html=1;" />
        <mxCell id="1" style=";html=1;" parent="0" />
        <mxCell id="10b056a9c633e61c-28" style="edgeStyle=orthogonalEdgeStyle;rounded=0;html=1;endArrow=block;endFill=1;jettySize=auto;orthogonalLoop=1;strokeWidth=2;startArrow=none;startFill=0;" parent="1" edge="1">
          <mxGeometry relative="1" as="geometry">
            <Array as="points">
              <mxPoint x="1267" y="310" />
              <mxPoint x="247" y="310" />
            </Array>
            <mxPoint x="247" y="590" as="targetPoint" />
          </mxGeometry>
        </mxCell>
        <mxCell id="10b056a9c633e61c-29" style="edgeStyle=orthogonalEdgeStyle;rounded=0;html=1;endArrow=block;endFill=1;jettySize=auto;orthogonalLoop=1;fontSize=12;strokeWidth=2;startArrow=none;startFill=0;" parent="1" edge="1">
          <mxGeometry relative="1" as="geometry">
            <Array as="points">
              <mxPoint x="1507" y="310" />
              <mxPoint x="247" y="310" />
            </Array>
            <mxPoint x="247" y="590" as="targetPoint" />
          </mxGeometry>
        </mxCell>
        <mxCell id="l9c5Ew2FdU56pjrotm96-154" value="DisplayRecipe()" style="rounded=0;whiteSpace=wrap;html=1;labelBackgroundColor=none;fontColor=default;fontSize=11;fontFamily=Comic Sans MS;align=center;fontStyle=0;verticalAlign=middle;" vertex="1" parent="1">
          <mxGeometry x="130" y="20" width="120" height="120" as="geometry" />
        </mxCell>
        <mxCell id="l9c5Ew2FdU56pjrotm96-158" value="&lt;div style=&quot;font-size: 11px; line-height: 19px;&quot;&gt;Click on&lt;br style=&quot;font-size: 11px;&quot;&gt;&lt;div style=&quot;font-size: 11px; line-height: 19px;&quot;&gt;appliancesFilterOptions&lt;/div&gt;&lt;/div&gt;" style="rounded=1;whiteSpace=wrap;html=1;labelBackgroundColor=none;fontColor=default;fontSize=11;fontFamily=Comic Sans MS;align=center;fontStyle=0;verticalAlign=middle;" vertex="1" parent="1">
          <mxGeometry x="240" y="280" width="120" height="80" as="geometry" />
        </mxCell>
        <mxCell id="l9c5Ew2FdU56pjrotm96-159" value="Click on&lt;br style=&quot;font-size: 11px;&quot;&gt;&lt;div style=&quot;line-height: 19px; font-size: 11px;&quot;&gt;ustencilsFilterOptions&lt;/div&gt;" style="rounded=1;whiteSpace=wrap;html=1;labelBackgroundColor=none;fontColor=default;fontSize=11;fontFamily=Comic Sans MS;align=center;fontStyle=0;verticalAlign=middle;" vertex="1" parent="1">
          <mxGeometry x="480" y="280" width="120" height="80" as="geometry" />
        </mxCell>
        <mxCell id="l9c5Ew2FdU56pjrotm96-160" value="Click on&lt;br style=&quot;font-size: 11px;&quot;&gt;&lt;div style=&quot;line-height: 19px; font-size: 11px;&quot;&gt;&lt;font style=&quot;font-size: 11px;&quot;&gt;ingredientsFilterOptions&lt;/font&gt;&lt;/div&gt;" style="rounded=1;whiteSpace=wrap;html=1;labelBackgroundColor=none;fontColor=default;fontSize=11;fontFamily=Comic Sans MS;align=center;fontStyle=0;verticalAlign=middle;" vertex="1" parent="1">
          <mxGeometry y="280" width="120" height="80" as="geometry" />
        </mxCell>
        <mxCell id="l9c5Ew2FdU56pjrotm96-161" value="Input on&amp;nbsp;&lt;br style=&quot;font-size: 11px;&quot;&gt;searchInput" style="rounded=1;whiteSpace=wrap;html=1;labelBackgroundColor=none;fontColor=default;fontSize=11;fontFamily=Comic Sans MS;align=center;fontStyle=0;verticalAlign=middle;" vertex="1" parent="1">
          <mxGeometry x="-240" y="280" width="120" height="80" as="geometry" />
        </mxCell>
        <mxCell id="l9c5Ew2FdU56pjrotm96-163" value="" style="endArrow=classic;html=1;rounded=0;entryX=0.5;entryY=0;entryDx=0;entryDy=0;labelBackgroundColor=none;fontColor=default;fontSize=11;fontFamily=Comic Sans MS;align=center;fontStyle=0;verticalAlign=middle;" edge="1" parent="1" target="l9c5Ew2FdU56pjrotm96-158">
          <mxGeometry width="50" height="50" relative="1" as="geometry">
            <mxPoint x="180" y="240" as="sourcePoint" />
            <mxPoint x="300" y="240" as="targetPoint" />
            <Array as="points">
              <mxPoint x="300" y="240" />
            </Array>
          </mxGeometry>
        </mxCell>
        <mxCell id="l9c5Ew2FdU56pjrotm96-166" value="" style="endArrow=classic;html=1;rounded=0;entryX=0.5;entryY=0;entryDx=0;entryDy=0;labelBackgroundColor=none;fontColor=default;fontSize=11;fontFamily=Comic Sans MS;align=center;fontStyle=0;verticalAlign=middle;" edge="1" parent="1" target="l9c5Ew2FdU56pjrotm96-159">
          <mxGeometry width="50" height="50" relative="1" as="geometry">
            <mxPoint x="300" y="240" as="sourcePoint" />
            <mxPoint x="520" y="240" as="targetPoint" />
            <Array as="points">
              <mxPoint x="540" y="240" />
            </Array>
          </mxGeometry>
        </mxCell>
        <mxCell id="l9c5Ew2FdU56pjrotm96-167" value="" style="endArrow=classic;html=1;rounded=0;entryX=0.5;entryY=0;entryDx=0;entryDy=0;labelBackgroundColor=none;fontColor=default;fontSize=11;fontFamily=Comic Sans MS;align=center;fontStyle=0;verticalAlign=middle;" edge="1" parent="1" target="l9c5Ew2FdU56pjrotm96-161">
          <mxGeometry width="50" height="50" relative="1" as="geometry">
            <mxPoint x="60" y="240" as="sourcePoint" />
            <mxPoint x="-180" y="270" as="targetPoint" />
            <Array as="points">
              <mxPoint x="-180" y="240" />
            </Array>
          </mxGeometry>
        </mxCell>
        <mxCell id="l9c5Ew2FdU56pjrotm96-168" value="" style="endArrow=classic;html=1;rounded=0;entryX=0.5;entryY=0;entryDx=0;entryDy=0;labelBackgroundColor=none;fontColor=default;fontSize=11;fontFamily=Comic Sans MS;align=center;fontStyle=0;verticalAlign=middle;" edge="1" parent="1" target="l9c5Ew2FdU56pjrotm96-160">
          <mxGeometry width="50" height="50" relative="1" as="geometry">
            <mxPoint x="180" y="240" as="sourcePoint" />
            <mxPoint x="60" y="270" as="targetPoint" />
            <Array as="points">
              <mxPoint x="60" y="240" />
            </Array>
          </mxGeometry>
        </mxCell>
        <mxCell id="l9c5Ew2FdU56pjrotm96-170" value="GlobalSearch()" style="rounded=0;whiteSpace=wrap;html=1;labelBackgroundColor=none;fontColor=default;fontSize=11;fontFamily=Comic Sans MS;align=center;fontStyle=0;verticalAlign=middle;" vertex="1" parent="1">
          <mxGeometry x="120" y="400" width="120" height="120" as="geometry" />
        </mxCell>
        <mxCell id="l9c5Ew2FdU56pjrotm96-171" value="" style="endArrow=classic;html=1;rounded=0;exitX=0.5;exitY=1;exitDx=0;exitDy=0;entryX=1;entryY=0;entryDx=0;entryDy=0;labelBackgroundColor=none;fontFamily=Comic Sans MS;fontSize=11;fontColor=default;align=center;fontStyle=0;verticalAlign=middle;" edge="1" parent="1" source="l9c5Ew2FdU56pjrotm96-158" target="l9c5Ew2FdU56pjrotm96-170">
          <mxGeometry width="50" height="50" relative="1" as="geometry">
            <mxPoint x="210" y="410" as="sourcePoint" />
            <mxPoint x="260" y="360" as="targetPoint" />
            <Array as="points">
              <mxPoint x="300" y="400" />
            </Array>
          </mxGeometry>
        </mxCell>
        <mxCell id="l9c5Ew2FdU56pjrotm96-172" value="" style="endArrow=classic;html=1;rounded=0;exitX=0.5;exitY=1;exitDx=0;exitDy=0;entryX=1;entryY=0;entryDx=0;entryDy=0;labelBackgroundColor=none;fontFamily=Comic Sans MS;fontSize=11;fontColor=default;align=center;fontStyle=0;verticalAlign=middle;" edge="1" parent="1" source="l9c5Ew2FdU56pjrotm96-159" target="l9c5Ew2FdU56pjrotm96-170">
          <mxGeometry width="50" height="50" relative="1" as="geometry">
            <mxPoint x="520" y="440" as="sourcePoint" />
            <mxPoint x="570" y="390" as="targetPoint" />
            <Array as="points">
              <mxPoint x="540" y="400" />
            </Array>
          </mxGeometry>
        </mxCell>
        <mxCell id="l9c5Ew2FdU56pjrotm96-174" value="" style="endArrow=classic;html=1;rounded=0;exitX=0.5;exitY=1;exitDx=0;exitDy=0;entryX=0;entryY=0;entryDx=0;entryDy=0;labelBackgroundColor=none;fontFamily=Comic Sans MS;fontSize=11;fontColor=default;align=center;fontStyle=0;verticalAlign=middle;" edge="1" parent="1" source="l9c5Ew2FdU56pjrotm96-160" target="l9c5Ew2FdU56pjrotm96-170">
          <mxGeometry width="50" height="50" relative="1" as="geometry">
            <mxPoint x="-20" y="480" as="sourcePoint" />
            <mxPoint x="30" y="430" as="targetPoint" />
            <Array as="points">
              <mxPoint x="60" y="400" />
            </Array>
          </mxGeometry>
        </mxCell>
        <mxCell id="l9c5Ew2FdU56pjrotm96-175" value="" style="endArrow=classic;html=1;rounded=0;exitX=0.5;exitY=1;exitDx=0;exitDy=0;entryX=0;entryY=0;entryDx=0;entryDy=0;labelBackgroundColor=none;fontFamily=Comic Sans MS;fontSize=11;fontColor=default;align=center;fontStyle=0;verticalAlign=middle;" edge="1" parent="1" source="l9c5Ew2FdU56pjrotm96-161" target="l9c5Ew2FdU56pjrotm96-170">
          <mxGeometry width="50" height="50" relative="1" as="geometry">
            <mxPoint x="-180" y="450" as="sourcePoint" />
            <mxPoint x="-180" y="400" as="targetPoint" />
            <Array as="points">
              <mxPoint x="-180" y="400" />
            </Array>
          </mxGeometry>
        </mxCell>
        <mxCell id="l9c5Ew2FdU56pjrotm96-176" value="&lt;div style=&quot;line-height: 19px; font-size: 11px;&quot;&gt;searchText&lt;br style=&quot;font-size: 11px;&quot;&gt;&lt;span style=&quot;font-size: 11px;&quot;&gt;length&lt;/span&gt; &lt;span style=&quot;font-size: 11px;&quot;&gt;&amp;gt;=&lt;/span&gt; &lt;span style=&quot;font-size: 11px;&quot;&gt;3&lt;/span&gt;&lt;/div&gt;" style="rhombus;whiteSpace=wrap;html=1;labelBackgroundColor=none;fontFamily=Comic Sans MS;fontSize=11;fontColor=default;align=center;fontStyle=0;verticalAlign=middle;" vertex="1" parent="1">
          <mxGeometry x="120" y="620" width="120" height="120" as="geometry" />
        </mxCell>
        <mxCell id="l9c5Ew2FdU56pjrotm96-178" value="" style="endArrow=classic;html=1;rounded=0;exitX=0.5;exitY=1;exitDx=0;exitDy=0;entryX=0.5;entryY=0;entryDx=0;entryDy=0;fontSize=11;fontColor=default;labelBackgroundColor=none;fontFamily=Comic Sans MS;align=center;fontStyle=0;verticalAlign=middle;" edge="1" parent="1" source="l9c5Ew2FdU56pjrotm96-170" target="l9c5Ew2FdU56pjrotm96-176">
          <mxGeometry width="50" height="50" relative="1" as="geometry">
            <mxPoint x="340" y="550" as="sourcePoint" />
            <mxPoint x="390" y="500" as="targetPoint" />
          </mxGeometry>
        </mxCell>
        <mxCell id="l9c5Ew2FdU56pjrotm96-233" value="" style="edgeStyle=orthogonalEdgeStyle;rounded=0;orthogonalLoop=1;jettySize=auto;html=1;entryX=0;entryY=0.5;entryDx=0;entryDy=0;labelBackgroundColor=none;fontColor=default;align=center;verticalAlign=middle;fontSize=11;fontFamily=Comic Sans MS;" edge="1" parent="1" source="l9c5Ew2FdU56pjrotm96-180" target="l9c5Ew2FdU56pjrotm96-240">
          <mxGeometry relative="1" as="geometry" />
        </mxCell>
        <mxCell id="l9c5Ew2FdU56pjrotm96-180" value="&lt;div style=&quot;font-size: 11px;&quot;&gt;getFilteredRecipes&lt;br style=&quot;font-size: 11px;&quot;&gt;&lt;div style=&quot;font-size: 11px;&quot;&gt;&lt;span style=&quot;font-size: 11px;&quot;&gt;ByName();&lt;/span&gt;&lt;span style=&quot;font-size: 11px;&quot;&gt;&amp;nbsp; &lt;/span&gt;&lt;span style=&quot;font-size: 11px;&quot;&gt;applianceOption&lt;/span&gt;&lt;span style=&quot;font-size: 11px;&quot;&gt;(&lt;/span&gt;&lt;span style=&quot;font-size: 11px;&quot;&gt;);&lt;/span&gt;&lt;span style=&quot;font-size: 11px;&quot;&gt;&amp;nbsp; &lt;/span&gt;&lt;span style=&quot;font-size: 11px;&quot;&gt;ingredientOption&lt;/span&gt;&lt;span style=&quot;font-size: 11px;&quot;&gt;(&lt;/span&gt;&lt;span style=&quot;font-size: 11px;&quot;&gt;);&lt;/span&gt;&lt;span style=&quot;font-size: 11px;&quot;&gt;&amp;nbsp; &lt;/span&gt;&lt;span style=&quot;font-size: 11px;&quot;&gt;ustensilOption&lt;/span&gt;&lt;span style=&quot;font-size: 11px;&quot;&gt;(&lt;/span&gt;&lt;span style=&quot;font-size: 11px;&quot;&gt;);&lt;/span&gt;&lt;/div&gt;&lt;/div&gt;" style="rounded=0;whiteSpace=wrap;html=1;labelBackgroundColor=none;fontColor=default;fontSize=11;fontFamily=Comic Sans MS;align=center;fontStyle=0;verticalAlign=middle;" vertex="1" parent="1">
          <mxGeometry x="360" y="620" width="120" height="120" as="geometry" />
        </mxCell>
        <mxCell id="l9c5Ew2FdU56pjrotm96-181" value="" style="endArrow=classic;html=1;rounded=0;exitX=1;exitY=0.5;exitDx=0;exitDy=0;entryX=0;entryY=0.5;entryDx=0;entryDy=0;fontSize=11;fontColor=default;labelBackgroundColor=none;fontFamily=Comic Sans MS;align=center;fontStyle=0;verticalAlign=middle;" edge="1" parent="1" source="l9c5Ew2FdU56pjrotm96-176" target="l9c5Ew2FdU56pjrotm96-180">
          <mxGeometry width="50" height="50" relative="1" as="geometry">
            <mxPoint x="260" y="620" as="sourcePoint" />
            <mxPoint x="310" y="570" as="targetPoint" />
          </mxGeometry>
        </mxCell>
        <mxCell id="l9c5Ew2FdU56pjrotm96-183" value="" style="endArrow=classic;html=1;rounded=0;exitX=0.5;exitY=1;exitDx=0;exitDy=0;entryX=0.5;entryY=0;entryDx=0;entryDy=0;fontSize=11;fontColor=default;labelBackgroundColor=none;fontFamily=Comic Sans MS;align=center;fontStyle=0;verticalAlign=middle;" edge="1" parent="1" source="l9c5Ew2FdU56pjrotm96-176" target="l9c5Ew2FdU56pjrotm96-186">
          <mxGeometry width="50" height="50" relative="1" as="geometry">
            <mxPoint x="40" y="590" as="sourcePoint" />
            <mxPoint y="620" as="targetPoint" />
          </mxGeometry>
        </mxCell>
        <mxCell id="l9c5Ew2FdU56pjrotm96-184" value="Yes" style="ellipse;whiteSpace=wrap;html=1;aspect=fixed;fontSize=11;fontColor=default;labelBackgroundColor=none;fontFamily=Comic Sans MS;align=center;fontStyle=0;verticalAlign=middle;" vertex="1" parent="1">
          <mxGeometry x="240" y="640" width="40" height="40" as="geometry" />
        </mxCell>
        <mxCell id="l9c5Ew2FdU56pjrotm96-185" value="No" style="ellipse;whiteSpace=wrap;html=1;aspect=fixed;fontSize=11;fontColor=default;labelBackgroundColor=none;fontFamily=Comic Sans MS;align=center;fontStyle=0;verticalAlign=middle;" vertex="1" parent="1">
          <mxGeometry x="140" y="740" width="40" height="40" as="geometry" />
        </mxCell>
        <mxCell id="l9c5Ew2FdU56pjrotm96-200" value="" style="edgeStyle=orthogonalEdgeStyle;rounded=0;orthogonalLoop=1;jettySize=auto;html=1;entryX=0.5;entryY=0;entryDx=0;entryDy=0;exitX=0.5;exitY=1;exitDx=0;exitDy=0;labelBackgroundColor=none;fontColor=default;fontFamily=Comic Sans MS;fontSize=11;align=center;verticalAlign=middle;" edge="1" parent="1" source="l9c5Ew2FdU56pjrotm96-186" target="l9c5Ew2FdU56pjrotm96-196">
          <mxGeometry relative="1" as="geometry" />
        </mxCell>
        <mxCell id="l9c5Ew2FdU56pjrotm96-186" value="&lt;div style=&quot;line-height: 19px; font-size: 11px;&quot;&gt;&lt;div style=&quot;font-size: 11px; line-height: 19px;&quot;&gt;appliancesFilter&lt;br style=&quot;font-size: 11px;&quot;&gt;ClassARR.&lt;span style=&quot;font-size: 11px;&quot;&gt;length&lt;/span&gt; &lt;br style=&quot;font-size: 11px;&quot;&gt;&lt;span style=&quot;font-size: 11px;&quot;&gt;!=&lt;/span&gt; &lt;span style=&quot;font-size: 11px;&quot;&gt;0&lt;/span&gt;&lt;/div&gt;&lt;/div&gt;" style="rhombus;whiteSpace=wrap;html=1;labelBackgroundColor=none;fontFamily=Comic Sans MS;fontSize=11;fontColor=default;align=center;fontStyle=0;verticalAlign=middle;" vertex="1" parent="1">
          <mxGeometry x="120" y="840" width="120" height="120" as="geometry" />
        </mxCell>
        <mxCell id="l9c5Ew2FdU56pjrotm96-191" value="&lt;div style=&quot;font-size: 11px;&quot;&gt;&lt;div style=&quot;font-size: 11px; line-height: 19px;&quot;&gt;&lt;div style=&quot;font-size: 11px;&quot;&gt;getFilteredRecipes&lt;br style=&quot;font-size: 11px;&quot;&gt;ByAppliance();&lt;/div&gt;&lt;div style=&quot;font-size: 11px;&quot;&gt;&lt;span style=&quot;font-size: 11px;&quot;&gt;ingredientOption&lt;/span&gt;&lt;span style=&quot;font-size: 11px;&quot;&gt;(&lt;/span&gt;&lt;span style=&quot;font-size: 11px;&quot;&gt;);&lt;/span&gt;&lt;/div&gt;&lt;div style=&quot;font-size: 11px;&quot;&gt;&lt;span style=&quot;font-size: 11px;&quot;&gt;ustensilOption&lt;/span&gt;();&lt;/div&gt;&lt;/div&gt;&lt;/div&gt;" style="rounded=0;whiteSpace=wrap;html=1;labelBackgroundColor=none;fontColor=default;fontSize=11;fontFamily=Comic Sans MS;align=center;fontStyle=0;verticalAlign=middle;" vertex="1" parent="1">
          <mxGeometry x="360" y="840" width="120" height="120" as="geometry" />
        </mxCell>
        <mxCell id="l9c5Ew2FdU56pjrotm96-192" value="" style="endArrow=classic;html=1;rounded=0;exitX=1;exitY=0.5;exitDx=0;exitDy=0;entryX=0;entryY=0.5;entryDx=0;entryDy=0;fontSize=11;fontColor=default;labelBackgroundColor=none;fontFamily=Comic Sans MS;align=center;fontStyle=0;verticalAlign=middle;" edge="1" parent="1" target="l9c5Ew2FdU56pjrotm96-191">
          <mxGeometry width="50" height="50" relative="1" as="geometry">
            <mxPoint x="240" y="900" as="sourcePoint" />
            <mxPoint x="310" y="790" as="targetPoint" />
          </mxGeometry>
        </mxCell>
        <mxCell id="l9c5Ew2FdU56pjrotm96-193" value="Yes" style="ellipse;whiteSpace=wrap;html=1;aspect=fixed;fontSize=11;fontColor=default;labelBackgroundColor=none;fontFamily=Comic Sans MS;align=center;fontStyle=0;verticalAlign=middle;" vertex="1" parent="1">
          <mxGeometry x="240" y="860" width="40" height="40" as="geometry" />
        </mxCell>
        <mxCell id="l9c5Ew2FdU56pjrotm96-196" value="&lt;div style=&quot;line-height: 19px; font-size: 11px;&quot;&gt;&lt;div style=&quot;font-size: 11px; line-height: 19px;&quot;&gt;&lt;div style=&quot;font-size: 11px; line-height: 19px;&quot;&gt;ingredientsFilter&lt;/div&gt;&lt;div style=&quot;font-size: 11px; line-height: 19px;&quot;&gt;ClassARR.&lt;span style=&quot;font-size: 11px;&quot;&gt;length&lt;/span&gt;&amp;nbsp;&lt;/div&gt;&lt;div style=&quot;font-size: 11px; line-height: 19px;&quot;&gt;&lt;span style=&quot;font-size: 11px;&quot;&gt;!=&lt;/span&gt; &lt;span style=&quot;font-size: 11px;&quot;&gt;0&lt;/span&gt;&lt;/div&gt;&lt;/div&gt;&lt;/div&gt;" style="rhombus;whiteSpace=wrap;html=1;labelBackgroundColor=none;fontFamily=Comic Sans MS;fontSize=11;fontColor=default;align=center;fontStyle=0;verticalAlign=middle;" vertex="1" parent="1">
          <mxGeometry x="120" y="1060" width="120" height="120" as="geometry" />
        </mxCell>
        <mxCell id="l9c5Ew2FdU56pjrotm96-197" value="&lt;div style=&quot;font-size: 11px;&quot;&gt;&lt;div style=&quot;font-size: 11px; line-height: 19px;&quot;&gt;&lt;div style=&quot;font-size: 11px;&quot;&gt;&lt;div style=&quot;font-size: 11px; line-height: 19px;&quot;&gt;&lt;div style=&quot;font-size: 11px;&quot;&gt;getFilteredRecipes&lt;/div&gt;&lt;div style=&quot;font-size: 11px;&quot;&gt;ByIngredient();&lt;/div&gt;&lt;div style=&quot;font-size: 11px;&quot;&gt;&lt;span style=&quot;font-size: 11px;&quot;&gt;applianceOption&lt;/span&gt;();&lt;/div&gt;&lt;div style=&quot;font-size: 11px;&quot;&gt;u&lt;span style=&quot;font-size: 11px;&quot;&gt;stensilOption&lt;/span&gt;();&lt;/div&gt;&lt;/div&gt;&lt;/div&gt;&lt;/div&gt;&lt;/div&gt;" style="rounded=0;whiteSpace=wrap;html=1;labelBackgroundColor=none;fontColor=default;fontSize=11;fontFamily=Comic Sans MS;align=center;fontStyle=0;verticalAlign=middle;" vertex="1" parent="1">
          <mxGeometry x="360" y="1060" width="120" height="120" as="geometry" />
        </mxCell>
        <mxCell id="l9c5Ew2FdU56pjrotm96-198" value="" style="endArrow=classic;html=1;rounded=0;exitX=1;exitY=0.5;exitDx=0;exitDy=0;entryX=0;entryY=0.5;entryDx=0;entryDy=0;fontSize=11;fontColor=default;labelBackgroundColor=none;fontFamily=Comic Sans MS;align=center;fontStyle=0;verticalAlign=middle;" edge="1" parent="1" target="l9c5Ew2FdU56pjrotm96-197">
          <mxGeometry width="50" height="50" relative="1" as="geometry">
            <mxPoint x="240" y="1120" as="sourcePoint" />
            <mxPoint x="310" y="1010" as="targetPoint" />
          </mxGeometry>
        </mxCell>
        <mxCell id="l9c5Ew2FdU56pjrotm96-199" value="Yes" style="ellipse;whiteSpace=wrap;html=1;aspect=fixed;fontSize=11;fontColor=default;labelBackgroundColor=none;fontFamily=Comic Sans MS;align=center;fontStyle=0;verticalAlign=middle;" vertex="1" parent="1">
          <mxGeometry x="240" y="1080" width="40" height="40" as="geometry" />
        </mxCell>
        <mxCell id="l9c5Ew2FdU56pjrotm96-201" value="No" style="ellipse;whiteSpace=wrap;html=1;aspect=fixed;fontSize=11;fontColor=default;labelBackgroundColor=none;fontFamily=Comic Sans MS;align=center;fontStyle=0;verticalAlign=middle;" vertex="1" parent="1">
          <mxGeometry x="140" y="960" width="40" height="40" as="geometry" />
        </mxCell>
        <mxCell id="l9c5Ew2FdU56pjrotm96-208" value="" style="edgeStyle=orthogonalEdgeStyle;rounded=0;orthogonalLoop=1;jettySize=auto;html=1;entryX=0.5;entryY=0;entryDx=0;entryDy=0;exitX=0.5;exitY=1;exitDx=0;exitDy=0;labelBackgroundColor=none;fontColor=default;fontFamily=Comic Sans MS;fontSize=11;align=center;verticalAlign=middle;" edge="1" parent="1" target="l9c5Ew2FdU56pjrotm96-209">
          <mxGeometry relative="1" as="geometry">
            <mxPoint x="180" y="1180" as="sourcePoint" />
          </mxGeometry>
        </mxCell>
        <mxCell id="l9c5Ew2FdU56pjrotm96-209" value="&lt;div style=&quot;line-height: 19px; font-size: 11px;&quot;&gt;&lt;div style=&quot;font-size: 11px; line-height: 19px;&quot;&gt;&lt;div style=&quot;font-size: 11px; line-height: 19px;&quot;&gt;&lt;div style=&quot;font-size: 11px; line-height: 19px;&quot;&gt;ustensilsFilter&lt;/div&gt;&lt;div style=&quot;font-size: 11px; line-height: 19px;&quot;&gt;ClassARR&amp;nbsp;&lt;/div&gt;&lt;div style=&quot;font-size: 11px; line-height: 19px;&quot;&gt;&lt;span style=&quot;font-size: 11px;&quot;&gt;!=&lt;/span&gt; &lt;span style=&quot;font-size: 11px;&quot;&gt;0&lt;/span&gt;&lt;/div&gt;&lt;/div&gt;&lt;/div&gt;&lt;/div&gt;" style="rhombus;whiteSpace=wrap;html=1;labelBackgroundColor=none;fontFamily=Comic Sans MS;fontSize=11;fontColor=default;align=center;fontStyle=0;verticalAlign=middle;" vertex="1" parent="1">
          <mxGeometry x="120" y="1280" width="120" height="120" as="geometry" />
        </mxCell>
        <mxCell id="l9c5Ew2FdU56pjrotm96-210" value="&lt;div style=&quot;font-size: 11px;&quot;&gt;&lt;div style=&quot;font-size: 11px; line-height: 19px;&quot;&gt;&lt;div style=&quot;font-size: 11px;&quot;&gt;&lt;div style=&quot;font-size: 11px; line-height: 19px;&quot;&gt;&lt;div style=&quot;line-height: 19px; font-size: 11px;&quot;&gt;&lt;div style=&quot;font-size: 11px;&quot;&gt;getFilteredRecipes&lt;/div&gt;&lt;div style=&quot;font-size: 11px;&quot;&gt;ByUstensil();&lt;/div&gt;&lt;div style=&quot;font-size: 11px;&quot;&gt;&lt;span style=&quot;font-size: 11px;&quot;&gt;ingredientOption&lt;/span&gt;();&lt;/div&gt;&lt;div style=&quot;font-size: 11px;&quot;&gt;&lt;span style=&quot;font-size: 11px;&quot;&gt;applianceOption&lt;/span&gt;();&lt;/div&gt;&lt;/div&gt;&lt;/div&gt;&lt;/div&gt;&lt;/div&gt;&lt;/div&gt;" style="rounded=0;whiteSpace=wrap;html=1;labelBackgroundColor=none;fontColor=default;fontSize=11;fontFamily=Comic Sans MS;align=center;fontStyle=0;verticalAlign=middle;" vertex="1" parent="1">
          <mxGeometry x="360" y="1280" width="120" height="120" as="geometry" />
        </mxCell>
        <mxCell id="l9c5Ew2FdU56pjrotm96-211" value="" style="endArrow=classic;html=1;rounded=0;exitX=1;exitY=0.5;exitDx=0;exitDy=0;entryX=0;entryY=0.5;entryDx=0;entryDy=0;fontSize=11;fontColor=default;labelBackgroundColor=none;fontFamily=Comic Sans MS;align=center;fontStyle=0;verticalAlign=middle;" edge="1" parent="1" target="l9c5Ew2FdU56pjrotm96-210">
          <mxGeometry width="50" height="50" relative="1" as="geometry">
            <mxPoint x="240" y="1340" as="sourcePoint" />
            <mxPoint x="310" y="1230" as="targetPoint" />
          </mxGeometry>
        </mxCell>
        <mxCell id="l9c5Ew2FdU56pjrotm96-212" value="Yes" style="ellipse;whiteSpace=wrap;html=1;aspect=fixed;fontSize=11;fontColor=default;labelBackgroundColor=none;fontFamily=Comic Sans MS;align=center;fontStyle=0;verticalAlign=middle;" vertex="1" parent="1">
          <mxGeometry x="240" y="1300" width="40" height="40" as="geometry" />
        </mxCell>
        <mxCell id="l9c5Ew2FdU56pjrotm96-213" value="No" style="ellipse;whiteSpace=wrap;html=1;aspect=fixed;fontSize=11;fontColor=default;labelBackgroundColor=none;fontFamily=Comic Sans MS;align=center;fontStyle=0;verticalAlign=middle;" vertex="1" parent="1">
          <mxGeometry x="140" y="1180" width="40" height="40" as="geometry" />
        </mxCell>
        <mxCell id="l9c5Ew2FdU56pjrotm96-214" value="" style="endArrow=classic;html=1;rounded=0;exitX=0;exitY=0.5;exitDx=0;exitDy=0;entryX=0;entryY=0.5;entryDx=0;entryDy=0;labelBackgroundColor=none;fontColor=default;align=center;verticalAlign=middle;fontSize=11;fontFamily=Comic Sans MS;" edge="1" parent="1" source="l9c5Ew2FdU56pjrotm96-209" target="l9c5Ew2FdU56pjrotm96-154">
          <mxGeometry width="50" height="50" relative="1" as="geometry">
            <mxPoint x="-70" y="1270" as="sourcePoint" />
            <mxPoint x="-360" y="180" as="targetPoint" />
            <Array as="points">
              <mxPoint x="-360" y="1340" />
              <mxPoint x="-360" y="80" />
            </Array>
          </mxGeometry>
        </mxCell>
        <mxCell id="l9c5Ew2FdU56pjrotm96-215" value="No" style="ellipse;whiteSpace=wrap;html=1;aspect=fixed;fontSize=11;fontColor=default;labelBackgroundColor=none;fontFamily=Comic Sans MS;align=center;fontStyle=0;verticalAlign=middle;" vertex="1" parent="1">
          <mxGeometry x="80" y="1340" width="40" height="40" as="geometry" />
        </mxCell>
        <mxCell id="l9c5Ew2FdU56pjrotm96-246" value="" style="edgeStyle=orthogonalEdgeStyle;rounded=0;orthogonalLoop=1;jettySize=auto;html=1;labelBackgroundColor=none;fontColor=default;align=center;verticalAlign=middle;fontSize=11;fontFamily=Comic Sans MS;" edge="1" parent="1" source="l9c5Ew2FdU56pjrotm96-240" target="l9c5Ew2FdU56pjrotm96-245">
          <mxGeometry relative="1" as="geometry" />
        </mxCell>
        <mxCell id="l9c5Ew2FdU56pjrotm96-240" value="&lt;div style=&quot;line-height: 19px; font-size: 11px;&quot;&gt;filteredRecipe&lt;br style=&quot;font-size: 11px;&quot;&gt;.length&amp;nbsp;&lt;span style=&quot;font-size: 11px;&quot;&gt;&amp;gt; 0&lt;/span&gt;&lt;br style=&quot;font-size: 11px;&quot;&gt;&lt;/div&gt;" style="rhombus;whiteSpace=wrap;html=1;labelBackgroundColor=none;fontFamily=Comic Sans MS;fontSize=11;fontColor=default;align=center;fontStyle=0;verticalAlign=middle;" vertex="1" parent="1">
          <mxGeometry x="600" y="620" width="120" height="120" as="geometry" />
        </mxCell>
        <mxCell id="l9c5Ew2FdU56pjrotm96-243" value="Yes" style="ellipse;whiteSpace=wrap;html=1;aspect=fixed;fontSize=11;fontColor=default;labelBackgroundColor=none;fontFamily=Comic Sans MS;align=center;fontStyle=0;verticalAlign=middle;" vertex="1" parent="1">
          <mxGeometry x="720" y="690" width="40" height="40" as="geometry" />
        </mxCell>
        <mxCell id="l9c5Ew2FdU56pjrotm96-244" value="No" style="ellipse;whiteSpace=wrap;html=1;aspect=fixed;fontSize=11;fontColor=default;labelBackgroundColor=none;fontFamily=Comic Sans MS;align=center;fontStyle=0;verticalAlign=middle;" vertex="1" parent="1">
          <mxGeometry x="620" y="580" width="40" height="40" as="geometry" />
        </mxCell>
        <mxCell id="l9c5Ew2FdU56pjrotm96-245" value="&lt;div style=&quot;font-size: 11px;&quot;&gt;&lt;div style=&quot;font-size: 11px; line-height: 19px;&quot;&gt;&lt;div style=&quot;font-size: 11px;&quot;&gt;&lt;div style=&quot;font-size: 11px; line-height: 19px;&quot;&gt;displayError&lt;br style=&quot;font-size: 11px;&quot;&gt;Input&lt;/div&gt;&lt;/div&gt;&lt;/div&gt;&lt;/div&gt;" style="rounded=0;whiteSpace=wrap;html=1;labelBackgroundColor=none;fontColor=default;fontSize=11;fontFamily=Comic Sans MS;align=center;fontStyle=0;verticalAlign=middle;" vertex="1" parent="1">
          <mxGeometry x="600" y="400" width="120" height="120" as="geometry" />
        </mxCell>
        <mxCell id="l9c5Ew2FdU56pjrotm96-296" value="" style="edgeStyle=orthogonalEdgeStyle;rounded=0;orthogonalLoop=1;jettySize=auto;html=1;labelBackgroundColor=none;fontColor=default;align=center;verticalAlign=middle;fontSize=11;fontFamily=Comic Sans MS;exitX=0.5;exitY=1;exitDx=0;exitDy=0;" edge="1" parent="1" source="l9c5Ew2FdU56pjrotm96-314">
          <mxGeometry relative="1" as="geometry">
            <mxPoint x="420" y="1180" as="sourcePoint" />
            <mxPoint x="180" y="1220" as="targetPoint" />
            <Array as="points">
              <mxPoint x="620" y="1220" />
            </Array>
          </mxGeometry>
        </mxCell>
        <mxCell id="l9c5Ew2FdU56pjrotm96-300" value="" style="edgeStyle=orthogonalEdgeStyle;rounded=0;orthogonalLoop=1;jettySize=auto;html=1;exitX=0;exitY=0.5;exitDx=0;exitDy=0;" edge="1" parent="1" source="l9c5Ew2FdU56pjrotm96-298">
          <mxGeometry relative="1" as="geometry">
            <mxPoint x="180" y="780" as="targetPoint" />
            <Array as="points" />
          </mxGeometry>
        </mxCell>
        <mxCell id="l9c5Ew2FdU56pjrotm96-301" value="" style="shape=flexArrow;endArrow=classic;html=1;rounded=0;exitX=0.5;exitY=1;exitDx=0;exitDy=0;entryX=0.5;entryY=0;entryDx=0;entryDy=0;" edge="1" parent="1" source="l9c5Ew2FdU56pjrotm96-298" target="l9c5Ew2FdU56pjrotm96-302">
          <mxGeometry width="50" height="50" relative="1" as="geometry">
            <mxPoint x="800" y="770" as="sourcePoint" />
            <mxPoint x="800" y="680" as="targetPoint" />
            <Array as="points">
              <mxPoint x="820" y="880" />
            </Array>
          </mxGeometry>
        </mxCell>
        <mxCell id="l9c5Ew2FdU56pjrotm96-302" value="DisplayFilteredRecipe()" style="rounded=0;whiteSpace=wrap;html=1;labelBackgroundColor=none;fontColor=default;fontSize=11;fontFamily=Comic Sans MS;align=center;fontStyle=0;verticalAlign=middle;" vertex="1" parent="1">
          <mxGeometry x="760" y="1060" width="120" height="120" as="geometry" />
        </mxCell>
        <mxCell id="l9c5Ew2FdU56pjrotm96-303" value="" style="shape=flexArrow;endArrow=classic;html=1;rounded=0;exitX=1;exitY=0.5;exitDx=0;exitDy=0;entryX=0;entryY=0;entryDx=0;entryDy=0;" edge="1" parent="1" source="l9c5Ew2FdU56pjrotm96-290" target="l9c5Ew2FdU56pjrotm96-302">
          <mxGeometry width="50" height="50" relative="1" as="geometry">
            <mxPoint x="530" y="900" as="sourcePoint" />
            <mxPoint x="580" y="850" as="targetPoint" />
            <Array as="points">
              <mxPoint x="760" y="900" />
            </Array>
          </mxGeometry>
        </mxCell>
        <mxCell id="l9c5Ew2FdU56pjrotm96-304" value="" style="shape=flexArrow;endArrow=classic;html=1;rounded=0;exitX=1;exitY=0.5;exitDx=0;exitDy=0;entryX=0;entryY=0.5;entryDx=0;entryDy=0;" edge="1" parent="1" source="l9c5Ew2FdU56pjrotm96-314" target="l9c5Ew2FdU56pjrotm96-302">
          <mxGeometry width="50" height="50" relative="1" as="geometry">
            <mxPoint x="490" y="1125" as="sourcePoint" />
            <mxPoint x="540" y="1075" as="targetPoint" />
          </mxGeometry>
        </mxCell>
        <mxCell id="l9c5Ew2FdU56pjrotm96-305" value="" style="shape=flexArrow;endArrow=classic;html=1;rounded=0;exitX=1;exitY=0.5;exitDx=0;exitDy=0;entryX=0;entryY=0.5;entryDx=0;entryDy=0;" edge="1" parent="1" source="l9c5Ew2FdU56pjrotm96-191" target="l9c5Ew2FdU56pjrotm96-290">
          <mxGeometry width="50" height="50" relative="1" as="geometry">
            <mxPoint x="480" y="900" as="sourcePoint" />
            <mxPoint x="760" y="1060" as="targetPoint" />
            <Array as="points" />
          </mxGeometry>
        </mxCell>
        <mxCell id="l9c5Ew2FdU56pjrotm96-290" value="New&lt;br&gt;Recipe&lt;br&gt;Filtered Arr" style="ellipse;whiteSpace=wrap;html=1;aspect=fixed;" vertex="1" parent="1">
          <mxGeometry x="580" y="860" width="80" height="80" as="geometry" />
        </mxCell>
        <mxCell id="l9c5Ew2FdU56pjrotm96-307" value="" style="endArrow=classic;html=1;rounded=0;exitX=0.5;exitY=1;exitDx=0;exitDy=0;entryX=1;entryY=0.5;entryDx=0;entryDy=0;" edge="1" parent="1" source="l9c5Ew2FdU56pjrotm96-290">
          <mxGeometry width="50" height="50" relative="1" as="geometry">
            <mxPoint x="510" y="960" as="sourcePoint" />
            <mxPoint x="180" y="1000" as="targetPoint" />
            <Array as="points">
              <mxPoint x="620" y="1000" />
            </Array>
          </mxGeometry>
        </mxCell>
        <mxCell id="l9c5Ew2FdU56pjrotm96-311" value="" style="shape=flexArrow;endArrow=classic;html=1;rounded=0;exitX=1;exitY=0.5;exitDx=0;exitDy=0;entryX=0.5;entryY=0;entryDx=0;entryDy=0;" edge="1" parent="1" source="l9c5Ew2FdU56pjrotm96-240" target="l9c5Ew2FdU56pjrotm96-298">
          <mxGeometry width="50" height="50" relative="1" as="geometry">
            <mxPoint x="720" y="680" as="sourcePoint" />
            <mxPoint x="820" y="1060" as="targetPoint" />
            <Array as="points">
              <mxPoint x="820" y="680" />
            </Array>
          </mxGeometry>
        </mxCell>
        <mxCell id="l9c5Ew2FdU56pjrotm96-298" value="New&lt;br&gt;Recipe&lt;br&gt;Filtered Arr" style="ellipse;whiteSpace=wrap;html=1;aspect=fixed;" vertex="1" parent="1">
          <mxGeometry x="780" y="740" width="80" height="80" as="geometry" />
        </mxCell>
        <mxCell id="l9c5Ew2FdU56pjrotm96-315" value="" style="shape=flexArrow;endArrow=classic;html=1;rounded=0;exitX=1;exitY=0.5;exitDx=0;exitDy=0;entryX=0;entryY=0.5;entryDx=0;entryDy=0;" edge="1" parent="1" source="l9c5Ew2FdU56pjrotm96-197" target="l9c5Ew2FdU56pjrotm96-314">
          <mxGeometry width="50" height="50" relative="1" as="geometry">
            <mxPoint x="480" y="1120" as="sourcePoint" />
            <mxPoint x="760" y="1120" as="targetPoint" />
          </mxGeometry>
        </mxCell>
        <mxCell id="l9c5Ew2FdU56pjrotm96-314" value="New&lt;br&gt;Recipe&lt;br&gt;Filtered Arr" style="ellipse;whiteSpace=wrap;html=1;aspect=fixed;" vertex="1" parent="1">
          <mxGeometry x="580" y="1080" width="80" height="80" as="geometry" />
        </mxCell>
        <mxCell id="l9c5Ew2FdU56pjrotm96-316" value="New&lt;br&gt;Recipe&lt;br&gt;Filtered Arr" style="ellipse;whiteSpace=wrap;html=1;aspect=fixed;" vertex="1" parent="1">
          <mxGeometry x="580" y="1300" width="80" height="80" as="geometry" />
        </mxCell>
        <mxCell id="l9c5Ew2FdU56pjrotm96-317" value="" style="shape=flexArrow;endArrow=classic;html=1;rounded=0;exitX=1;exitY=0.5;exitDx=0;exitDy=0;entryX=0;entryY=0.5;entryDx=0;entryDy=0;" edge="1" parent="1" source="l9c5Ew2FdU56pjrotm96-210" target="l9c5Ew2FdU56pjrotm96-316">
          <mxGeometry width="50" height="50" relative="1" as="geometry">
            <mxPoint x="540" y="1250" as="sourcePoint" />
            <mxPoint x="640" y="1250" as="targetPoint" />
          </mxGeometry>
        </mxCell>
        <mxCell id="l9c5Ew2FdU56pjrotm96-318" value="" style="shape=flexArrow;endArrow=classic;html=1;rounded=0;exitX=1;exitY=0.5;exitDx=0;exitDy=0;entryX=0.5;entryY=1;entryDx=0;entryDy=0;" edge="1" parent="1" source="l9c5Ew2FdU56pjrotm96-316" target="l9c5Ew2FdU56pjrotm96-302">
          <mxGeometry width="50" height="50" relative="1" as="geometry">
            <mxPoint x="780" y="1319.58" as="sourcePoint" />
            <mxPoint x="880" y="1319.58" as="targetPoint" />
            <Array as="points">
              <mxPoint x="820" y="1340" />
            </Array>
          </mxGeometry>
        </mxCell>
        <mxCell id="l9c5Ew2FdU56pjrotm96-319" value="" style="endArrow=classic;html=1;rounded=0;exitX=1;exitY=0.5;exitDx=0;exitDy=0;labelBackgroundColor=none;fontColor=default;align=center;verticalAlign=middle;fontSize=11;fontFamily=Comic Sans MS;" edge="1" parent="1" source="l9c5Ew2FdU56pjrotm96-302">
          <mxGeometry width="50" height="50" relative="1" as="geometry">
            <mxPoint x="1630" y="1190" as="sourcePoint" />
            <mxPoint x="190" y="180" as="targetPoint" />
            <Array as="points">
              <mxPoint x="960" y="1120" />
              <mxPoint x="960" y="180" />
              <mxPoint x="410" y="180" />
            </Array>
          </mxGeometry>
        </mxCell>
        <mxCell id="l9c5Ew2FdU56pjrotm96-320" value="" style="endArrow=classic;html=1;rounded=0;exitX=0.5;exitY=1;exitDx=0;exitDy=0;" edge="1" parent="1" source="l9c5Ew2FdU56pjrotm96-154">
          <mxGeometry width="50" height="50" relative="1" as="geometry">
            <mxPoint x="90" y="90" as="sourcePoint" />
            <mxPoint x="190" y="240" as="targetPoint" />
          </mxGeometry>
        </mxCell>
      </root>
    </mxGraphModel>
  </diagram>
</mxfile>
